<?xml version="1.0" standalone="no"?>
<!DOCTYPE svg PUBLIC "-//W3C//DTD SVG 20010904//EN"
 "http://www.w3.org/TR/2001/REC-SVG-20010904/DTD/svg10.dtd">
<svg version="1.0" xmlns="http://www.w3.org/2000/svg"
 width="634.000000pt" height="634.000000pt" viewBox="0 0 634.000000 634.000000"
 preserveAspectRatio="xMidYMid meet">
<metadata>
Created by potrace 1.14, written by Peter Selinger 2001-2017
</metadata>
<g transform="translate(0.000000,634.000000) scale(0.100000,-0.100000)"
fill="#000000" stroke="none">
<path d="M4293 5785 c-136 -124 -249 -229 -251 -234 -3 -8 576 -457 601 -467
7 -2 77 123 169 304 l157 307 -204 158 c-113 86 -209 157 -214 157 -5 0 -121
-101 -258 -225z"/>
<path d="M3570 5242 c-113 -145 -219 -282 -237 -305 l-32 -43 395 -309 c218
-171 414 -324 438 -342 l42 -32 210 266 c115 147 221 283 236 303 l27 36 -132
104 c-73 58 -269 213 -437 345 l-305 240 -205 -263z"/>
<path d="M2809 4274 c-368 -466 -374 -473 -368 -478 2 -2 337 -253 744 -558
407 -305 748 -564 757 -574 49 -56 48 -39 48 -899 l0 -805 -155 0 -155 0 0
150 0 150 -1285 0 -1285 0 0 -150 0 -150 -170 0 -170 0 0 -370 0 -370 2295 0
2295 0 0 970 0 970 -39 -20 c-72 -36 -226 -70 -320 -70 -378 0 -686 225 -801
585 -34 107 -39 302 -11 415 51 204 173 385 328 488 30 19 52 39 51 43 -2 5
-708 559 -1329 1042 l-87 67 -343 -436z"/>
<path d="M2023 3268 c-147 -189 -334 -428 -416 -533 l-149 -190 104 -6 c56 -4
369 -10 693 -14 l591 -7 164 208 c91 114 166 211 168 215 3 7 -823 631 -875
662 -7 5 -107 -114 -280 -335z"/>
<path d="M4834 3452 c-108 -32 -174 -71 -255 -151 -139 -138 -202 -324 -169
-502 43 -232 198 -407 419 -473 87 -26 242 -22 339 9 282 89 450 383 387 680
-40 190 -190 359 -376 425 -90 31 -259 37 -345 12z m287 -225 c149 -62 237
-202 227 -362 -20 -312 -406 -455 -622 -230 -111 116 -134 280 -61 425 23 46
101 126 146 150 84 46 221 53 310 17z"/>
</g>
</svg>
